<svg xmlns="http://www.w3.org/2000/svg" data-name="Layer 1" viewBox="0 0 750 750"><path d="M679.56,332.37l-40.32-20V217.75a107.12,107.12,0,0,0-107-107H217.75a107.12,107.12,0,0,0-107,107v95L72.34,333.34A41.51,41.51,0,0,0,75,407.83l35.76,16V532.25a107.12,107.12,0,0,0,107,107H365a20,20,0,1,0,0-40H217.75a67.06,67.06,0,0,1-67-67V410.85a20,20,0,0,0-11.83-18.26l-47.6-21.28a1.51,1.51,0,0,1-.1-2.71l49-26.24a20,20,0,0,0,10.55-17.62v-107a67.06,67.06,0,0,1,67-67h314.5a67.06,67.06,0,0,1,67,67v107a20,20,0,0,0,11.1,17.91l51.43,25.54a1.51,1.51,0,0,1-.08,2.74l-50.32,21.54a20,20,0,0,0-12.13,18.38v121.4c0,34.57-27,63.89-61.35,66.75a20,20,0,1,0,3.31,39.86,107,107,0,0,0,98-106.61V424.05l38.19-16.34a41.51,41.51,0,0,0,2.13-75.34Z"/><path d="M268.71,509a20,20,0,0,0,20,20h106A86.56,86.56,0,0,0,449,375a86.56,86.56,0,0,0-54.26-154h-106a20,20,0,0,0-20,20v133.2c0,.28,0,.56,0,.84s0,.56,0,.84Zm126-20h-86v-93.2h86a46.6,46.6,0,0,1,0,93.2ZM308.71,261h86a46.6,46.6,0,0,1,0,93.2h-86Z"/></svg>