<svg width="414" height="333" viewBox="0 0 414 333" fill="none" xmlns="http://www.w3.org/2000/svg">
<path fill-rule="evenodd" clip-rule="evenodd" d="M99.25 0C92.7607 0 87.5 5.26065 87.5 11.75C87.5 16.0718 89.937 19.8244 93.5118 21.7086L216.316 124.675L220.516 210.377L0 217.826L221.229 224.926L226.5 332.5L230.2 225.214L231.664 225.261L340.427 227.8C341.014 227.814 341.588 227.767 342.144 227.665C345.012 227.805 347.909 226.65 349.896 224.28C353.267 220.259 352.741 214.267 348.72 210.896L234.01 114.716L236 57V18.6835L414 11L136 0H99.25ZM213 19.6763L136 23H124.624L215.049 98.8181L213 57V19.6763ZM231.664 210L230.723 210.032L233.179 138.814L318.079 210H231.664Z" fill="#FDFDFD"/>
</svg>
